<svg width="24" height="24" viewBox="0 0 24 24" fill="none" xmlns="http://www.w3.org/2000/svg">
<path d="M13.1474 12.3975L5.64738 19.8975C5.54075 19.9969 5.39972 20.051 5.25399 20.0484C5.10827 20.0458 4.96923 19.9868 4.86617 19.8837C4.76311 19.7807 4.70407 19.6416 4.7015 19.4959C4.69893 19.3502 4.75302 19.2091 4.85238 19.1025L11.9539 12L4.85238 4.89751C4.75302 4.79088 4.69893 4.64984 4.7015 4.50411C4.70407 4.35839 4.76311 4.21935 4.86617 4.11629C4.96923 4.01323 5.10827 3.9542 5.25399 3.95163C5.39972 3.94905 5.54075 4.00315 5.64738 4.10251L13.1474 11.6025C13.2527 11.708 13.3119 11.8509 13.3119 12C13.3119 12.1491 13.2527 12.292 13.1474 12.3975ZM20.6474 11.6025L13.1474 4.10251C13.0408 4.00315 12.8997 3.94905 12.754 3.95163C12.6083 3.9542 12.4692 4.01323 12.3662 4.11629C12.2631 4.21935 12.2041 4.35839 12.2015 4.50411C12.1989 4.64984 12.253 4.79088 12.3524 4.89751L19.4539 12L12.3524 19.1025C12.2971 19.154 12.2528 19.2161 12.222 19.2851C12.1913 19.3541 12.1748 19.4286 12.1734 19.5041C12.1721 19.5796 12.186 19.6547 12.2143 19.7247C12.2426 19.7947 12.2847 19.8584 12.3381 19.9118C12.3915 19.9652 12.4551 20.0073 12.5252 20.0356C12.5952 20.0639 12.6702 20.0778 12.7458 20.0765C12.8213 20.0751 12.8958 20.0586 12.9648 20.0278C13.0338 19.9971 13.0959 19.9528 13.1474 19.8975L20.6474 12.3975C20.7527 12.292 20.8119 12.1491 20.8119 12C20.8119 11.8509 20.7527 11.708 20.6474 11.6025Z" fill="#6ED4FB"/>
</svg>
